<?xml version="1.0" standalone="no"?>
<!DOCTYPE svg PUBLIC "-//W3C//DTD SVG 20010904//EN"
 "http://www.w3.org/TR/2001/REC-SVG-20010904/DTD/svg10.dtd">
<svg version="1.0" xmlns="http://www.w3.org/2000/svg"
 width="260.000000pt" height="260.000000pt" viewBox="0 0 260.000000 260.000000"
 preserveAspectRatio="xMidYMid meet">
<metadata>
Created by potrace 1.14, written by Peter Selinger 2001-2017
</metadata>
<g transform="translate(0.000000,260.000000) scale(0.100000,-0.100000)"
fill="#000000" stroke="none">
<path d="M0 1300 l0 -1300 1300 0 1300 0 0 1300 0 1300 -1300 0 -1300 0 0
-1300z m1425 805 c49 -14 101 -35 117 -46 77 -55 78 -178 2 -238 -40 -32 -98
-35 -188 -12 -90 24 -198 27 -327 10 -98 -13 -125 -25 -168 -74 -26 -30 -31
-44 -31 -86 0 -62 20 -112 54 -134 14 -9 65 -27 113 -39 97 -25 112 -32 195
-88 32 -21 99 -58 150 -82 160 -75 232 -149 274 -283 24 -75 26 -93 22 -220
-4 -158 -17 -195 -87 -254 -134 -115 -216 -132 -626 -127 -261 3 -272 4 -318
27 -82 40 -113 117 -78 196 36 81 45 84 330 77 268 -5 432 7 464 35 33 31 18
174 -25 220 -12 14 -57 41 -98 60 -41 19 -109 56 -150 83 -55 35 -98 55 -160
70 -118 30 -179 62 -238 123 -175 186 -173 483 5 653 74 71 176 121 279 139
43 7 152 13 240 14 145 1 171 -2 249 -24z m712 -33 c44 -31 67 -86 71 -167 5
-120 -43 -180 -147 -180 -99 0 -143 52 -157 187 -6 60 -4 71 19 111 14 24 41
52 59 61 43 22 116 16 155 -12z m19 -453 c58 -56 58 -56 51 -597 -7 -546 -6
-541 -73 -583 -43 -26 -113 -27 -157 -2 -19 11 -42 38 -55 64 l-23 46 8 500 8
499 26 41 c54 80 150 95 215 32z"/>
</g>
</svg>
